<?xml version="1.0" standalone="no"?>
<!DOCTYPE svg PUBLIC "-//W3C//DTD SVG 20010904//EN"
 "http://www.w3.org/TR/2001/REC-SVG-20010904/DTD/svg10.dtd">
<svg version="1.0" xmlns="http://www.w3.org/2000/svg"
 width="980.000000pt" height="912.000000pt" viewBox="0 0 980.000000 912.000000"
 preserveAspectRatio="xMidYMid meet">

<g transform="translate(0.000000,912.000000) scale(0.100000,-0.100000)"
fill="#000000" stroke="none">
<path d="M2340 9095 c-630 -91 -1233 -436 -1631 -935 -367 -460 -576 -960
-675 -1620 -72 -480 -17 -969 170 -1525 127 -375 284 -694 523 -1061 l107
-164 566 0 567 0 278 613 c307 674 498 1085 582 1250 47 92 61 111 94 127 74
38 173 19 213 -42 39 -60 251 -572 666 -1604 175 -437 323 -800 327 -809 10
-18 20 0 368 620 408 729 414 738 497 750 109 16 152 -20 287 -241 172 -283
221 -353 221 -316 0 4 38 185 85 402 46 217 161 760 255 1205 254 1204 299
1405 323 1448 59 106 199 106 299 0 26 -27 32 -59 212 -1203 102 -646 219
-1391 260 -1655 42 -264 78 -495 81 -513 l6 -32 977 1 977 0 92 142 c249 385
414 724 540 1107 151 461 217 937 184 1310 -85 931 -495 1744 -1127 2232 -320
247 -707 425 -1064 488 -156 28 -571 39 -757 21 -466 -47 -921 -230 -1278
-516 -168 -134 -389 -352 -522 -515 -92 -113 -105 -123 -161 -124 -29 -1 -58
6 -74 16 -14 9 -74 77 -134 150 -287 353 -563 583 -899 749 -236 116 -485 194
-745 235 -145 22 -561 28 -690 9z"/>
<path d="M6276 6029 c-2 -8 -18 -86 -36 -174 -74 -369 -457 -2146 -496 -2300
-18 -68 -33 -89 -86 -116 -42 -21 -123 -25 -162 -8 -25 12 -150 195 -271 399
-110 185 -186 300 -196 295 -12 -8 -85 -134 -316 -545 -320 -570 -455 -800
-493 -841 -27 -28 -46 -39 -81 -44 -42 -6 -109 5 -135 22 -33 23 -165 337
-748 1783 -255 633 -249 620 -258 620 -10 0 -118 -224 -378 -786 -323 -697
-403 -859 -434 -879 -36 -24 -238 -34 -678 -35 -381 0 -371 2 -295 -73 228
-226 3644 -3333 3663 -3331 6 1 382 331 835 735 1869 1663 2702 2414 2867
2582 l74 74 -709 7 c-864 9 -1139 18 -1181 40 -69 36 -50 -64 -297 1496 -113
712 -174 1083 -181 1089 -2 2 -5 -2 -8 -10z"/>
</g>
</svg>
